# xmcd
#
# Track frame offsets:
#	150
#	19688
#	49358
#	70634
#	93523
#
# Disc length: 1658 seconds
#
# Revision: 1
# Processed by: cddbd v1.5.1PL0 Copyright (c) Steve Scherf et al.
# Submitted via: CDex 1.50Beta5
#
DISCID=3a067805
DTITLE=Various Artist - Best Sound Collection '90s
DYEAR=1900
DGENRE=Folk
TTITLE0=篠原　涼子/恋しさと　せつなさと　心強さと
TTITLE1=X/Endless Rain
TTITLE2=PUFFY/アジアの純真
TTITLE3=THE　BOOM/島唄
TTITLE4=バブルガム・ブラザーズ/Won't Be Long
EXTD=
EXTT0=
EXTT1=
EXTT2=
EXTT3=
EXTT4=
PLAYORDER=
